<svg width="100" height="100" viewBox="0 0 100 100" fill="none" xmlns="http://www.w3.org/2000/svg">
<path className="fill-foreground" d="M100 50C100 77.6142 77.6142 100 50 100C22.3858 100 0 77.6142 0 50C0 22.3858 22.3858 0 50 0C77.6142 0 100 22.3858 100 50ZM7.5 50C7.5 73.4721 26.5279 92.5 50 92.5C73.4721 92.5 92.5 73.4721 92.5 50C92.5 26.5279 73.4721 7.5 50 7.5C26.5279 7.5 7.5 26.5279 7.5 50Z" />
<path className="fill-foreground" d="M57 74C57 71.7909 58.7909 70 61 70H73C75.2091 70 77 71.7909 77 74V74C77 76.2091 75.2091 78 73 78H61C58.7909 78 57 76.2091 57 74V74Z" />
<path className="fill-foreground" d="M57 58C57 69.0457 48.0457 78 37 78C25.9543 78 17 69.0457 17 58C17 46.9543 25.9543 38 37 38C48.0457 38 57 46.9543 57 58ZM24 58C24 65.1797 29.8203 71 37 71C44.1797 71 50 65.1797 50 58C50 50.8203 44.1797 45 37 45C29.8203 45 24 50.8203 24 58Z" />
</svg>
